# xmcd CD database file
#
# Track frame offsets:
#	150
#	23116
#	44836
#	65748
#	85065
#	105629
#	126866
#	139275
#	157930
#	172707
#	201988
#	222461
#	244929
#	261297
#	280148
#	302081
#
# Disc length: 4317 seconds
#
# Revision: 0
# Processed by: cddbd v1.5.2PL0 Copyright (c) Steve Scherf et al.
# Submitted via: CDex 1.70beta2
#
DISCID=ee10db10
DTITLE=Tommy Olivencia - Las 32 Mas Grandes - Disc 1
DYEAR=2004
DGENRE=Salsa
TTITLE0=Como Lo Hacen
TTITLE1=Lobo Dmesticado
TTITLE2=El Del Tabacon
TTITLE3=Que Se Mueran De Envidia
TTITLE4=No Soy Automatico
TTITLE5=Como Una Estrella
TTITLE6=Del Monton
TTITLE7=Doce Rosas
TTITLE8=Anita Tun Tun
TTITLE9=Atrevida
TTITLE10=Lapiz De Carmin
TTITLE11=Mujeres Como Tu
TTITLE12=Volvere
TTITLE13=Fiesta De Besos
TTITLE14=Te Estoy Estudiando
TTITLE15=Primero Fui Yo
EXTD=YEAR: 2004
EXTT0=
EXTT1=
EXTT2=
EXTT3=
EXTT4=
EXTT5=
EXTT6=
EXTT7=
EXTT8=
EXTT9=
EXTT10=
EXTT11=
EXTT12=
EXTT13=
EXTT14=
EXTT15=
PLAYORDER=
